<svg id="Capa_1" data-name="Capa 1" xmlns="http://www.w3.org/2000/svg" viewBox="0 0 245.24 257.01"><defs><style>.cls-1{fill:#dc3545;}</style></defs><path d="M44.34,267.18h3v8.54a12.94,12.94,0,0,1-8.3,2.79c-6.73,0-11.67-4.73-11.67-11.21s4.94-11.2,11.74-11.2a10.93,10.93,0,0,1,8.41,3.38l-1.94,1.94a8.69,8.69,0,0,0-6.35-2.54c-5.07,0-8.73,3.54-8.73,8.42a8.32,8.32,0,0,0,8.7,8.42,9.26,9.26,0,0,0,5.13-1.41Z" transform="translate(-27.38 -21.49)"/><path d="M68,278.26l-4.72-6.73c-.44,0-.91.06-1.38.06H56.46v6.67H53.33V256.35h8.54c5.7,0,9.14,2.88,9.14,7.63a6.91,6.91,0,0,1-4.82,6.92l5.2,7.36ZM67.88,264c0-3.13-2.1-4.91-6.1-4.91H56.46v9.86h5.32C65.78,268.93,67.88,267.11,67.88,264Z" transform="translate(-27.38 -21.49)"/><path d="M74.3,267.3c0-6.41,4.94-11.2,11.67-11.2s11.61,4.75,11.61,11.2S92.64,278.51,86,278.51,74.3,273.72,74.3,267.3Zm20.15,0A8.51,8.51,0,1,0,86,275.72,8.23,8.23,0,0,0,94.45,267.3Z" transform="translate(-27.38 -21.49)"/><path d="M102.19,268.8V256.35h3.13v12.33c0,4.85,2.22,7,6.16,7s6.2-2.19,6.2-7V256.35h3V268.8c0,6.36-3.48,9.71-9.27,9.71S102.19,275.16,102.19,268.8Z" transform="translate(-27.38 -21.49)"/><path d="M146,256.35v21.91h-2.57l-13.15-16.34v16.34h-3.12V256.35h2.56l13.15,16.33V256.35Z" transform="translate(-27.38 -21.49)"/><path d="M152.55,256.35h9.23c7.05,0,11.84,4.44,11.84,10.95s-4.79,11-11.84,11h-9.23Zm9,19.18c5.41,0,8.89-3.32,8.89-8.23s-3.48-8.23-8.89-8.23h-5.92v16.46Z" transform="translate(-27.38 -21.49)"/><path d="M203.2,275.53v2.73H184.89v-2.13l13.77-17.06H185.11v-2.72h17.68v2.13l-13.71,17Z" transform="translate(-27.38 -21.49)"/><path d="M223.29,275.53v2.73h-15.9V256.35h15.46v2.72H210.52v6.73h11v2.66h-11v7.07Z" transform="translate(-27.38 -21.49)"/><path d="M243,278.26l-4.72-6.73c-.44,0-.91.06-1.38.06h-5.42v6.67h-3.13V256.35h8.55c5.69,0,9.14,2.88,9.14,7.63a6.92,6.92,0,0,1-4.82,6.92l5.19,7.36ZM242.92,264c0-3.13-2.1-4.91-6.11-4.91h-5.32v9.86h5.32C240.82,268.93,242.92,267.11,242.92,264Z" transform="translate(-27.38 -21.49)"/><path d="M249.34,267.3c0-6.41,4.94-11.2,11.67-11.2s11.61,4.75,11.61,11.2-4.94,11.21-11.61,11.21S249.34,273.72,249.34,267.3Zm20.15,0a8.51,8.51,0,1,0-8.48,8.42A8.23,8.23,0,0,0,269.49,267.3Z" transform="translate(-27.38 -21.49)"/><path d="M161.54,21.49c-56.17,0-97,38.11-97,91.32,0,44.94,29.22,79.17,71.88,88.58l27.18-32.11h-.53c-33.78,0-57.24-23.45-57.24-56.47,0-33.55,23.46-56.55,57.77-56.55,17.91,0,32.79,6.3,45.62,20L235.47,52C218.32,32.12,192.58,21.49,161.54,21.49Z" transform="translate(-27.38 -21.49)"/><polygon class="cls-1" points="208.09 87.97 208.09 107.94 148.88 176.79 208.09 176.79 208.09 202.29 106.98 202.29 106.98 182.33 109.03 179.9 136.21 147.79 165.28 113.48 106.98 113.48 106.98 87.97 208.09 87.97"/></svg>